<?xml version="1.0" encoding="UTF-8" standalone="no"?>
<!-- Created with Inkscape (http://www.inkscape.org/) -->

<svg
   xmlns:dc="http://purl.org/dc/elements/1.1/"
   xmlns:cc="http://creativecommons.org/ns#"
   xmlns:rdf="http://www.w3.org/1999/02/22-rdf-syntax-ns#"
   xmlns:svg="http://www.w3.org/2000/svg"
   xmlns="http://www.w3.org/2000/svg"
   xmlns:sodipodi="http://sodipodi.sourceforge.net/DTD/sodipodi-0.dtd"
   xmlns:inkscape="http://www.inkscape.org/namespaces/inkscape"
   width="744.09448819"
   height="1052.3622047"
   id="svg2"
   version="1.1"
   inkscape:version="0.48.1 r9760"
   sodipodi:docname="MAC.eps">
  <defs
     id="defs4">
    <marker
       inkscape:stockid="Arrow1Lend"
       orient="auto"
       refY="0.0"
       refX="0.0"
       id="Arrow1Lend"
       style="overflow:visible;">
      <path
         id="path4145"
         d="M 0.0,0.0 L 5.0,-5.0 L -12.5,0.0 L 5.0,5.0 L 0.0,0.0 z "
         style="fill-rule:evenodd;stroke:#000000;stroke-width:1.0pt;marker-start:none;"
         transform="scale(0.8) rotate(180) translate(12.5,0)" />
    </marker>
  </defs>
  <sodipodi:namedview
     id="base"
     pagecolor="#ffffff"
     bordercolor="#666666"
     borderopacity="1.0"
     inkscape:pageopacity="0.0"
     inkscape:pageshadow="2"
     inkscape:zoom="1"
     inkscape:cx="231.32952"
     inkscape:cy="920.32131"
     inkscape:document-units="px"
     inkscape:current-layer="layer1"
     showgrid="false"
     showguides="true"
     inkscape:guide-bbox="true"
     inkscape:window-width="1680"
     inkscape:window-height="973"
     inkscape:window-x="0"
     inkscape:window-y="24"
     inkscape:window-maximized="1" />
  <metadata
     id="metadata7">
    <rdf:RDF>
      <cc:Work
         rdf:about="">
        <dc:format>image/svg+xml</dc:format>
        <dc:type
           rdf:resource="http://purl.org/dc/dcmitype/StillImage" />
        <dc:title></dc:title>
      </cc:Work>
    </rdf:RDF>
  </metadata>
  <g
     inkscape:label="Layer 1"
     inkscape:groupmode="layer"
     id="layer1">
    <path
       style="fill:none;stroke:#000000;stroke-width:1px;stroke-linecap:butt;stroke-linejoin:round;stroke-opacity:1;marker-start:none;marker-end:url(#Arrow1Lend)"
       d="m 34.331265,73.019293 523.763115,0"
       id="path2999"
       inkscape:connector-curvature="0"
       sodipodi:nodetypes="cc" />
    <path
       style="fill:none;stroke:#000000;stroke-width:1px;stroke-linecap:butt;stroke-linejoin:miter;stroke-opacity:1"
       d="m 64.313915,73.019293 0,14.647208"
       id="path3769"
       inkscape:connector-curvature="0"
       sodipodi:nodetypes="cc" />
    <path
       style="fill:none;stroke:#000000;stroke-width:1px;stroke-linecap:butt;stroke-linejoin:miter;stroke-opacity:1"
       d="m 296.68119,73.019293 0,14.647208"
       id="path3769-5"
       inkscape:connector-curvature="0"
       sodipodi:nodetypes="cc" />
    <path
       style="fill:none;stroke:#000000;stroke-width:1px;stroke-linecap:butt;stroke-linejoin:miter;stroke-opacity:1"
       d="m 470.95663,73.019293 0,14.64721"
       id="path3769-5-6"
       inkscape:connector-curvature="0"
       sodipodi:nodetypes="cc" />
    <path
       style="fill:none;stroke:#000000;stroke-width:1px;stroke-linecap:butt;stroke-linejoin:miter;stroke-opacity:1"
       d="m 151.45163,73.019293 0,14.647208"
       id="path3769-1"
       inkscape:connector-curvature="0"
       sodipodi:nodetypes="cc" />
    <path
       style="fill:none;stroke:#000000;stroke-width:1px;stroke-linecap:butt;stroke-linejoin:miter;stroke-opacity:1"
       d="m 209.54346,73.019293 0,14.647205"
       id="path3769-4"
       inkscape:connector-curvature="0"
       sodipodi:nodetypes="cc" />
    <path
       style="fill:none;stroke:#000000;stroke-width:1px;stroke-linecap:butt;stroke-linejoin:miter;stroke-opacity:1"
       d="m 383.81891,73.019293 0,14.647211"
       id="path3769-55"
       inkscape:connector-curvature="0"
       sodipodi:nodetypes="cc" />
    <path
       style="fill:none;stroke:#000000;stroke-width:1px;stroke-linecap:butt;stroke-linejoin:miter;stroke-opacity:1"
       d="m 238.58935,73.019293 0,14.647205"
       id="path3769-4-2"
       inkscape:connector-curvature="0"
       sodipodi:nodetypes="cc" />
    <path
       style="fill:none;stroke:#000000;stroke-width:1px;stroke-linecap:butt;stroke-linejoin:miter;stroke-opacity:1"
       d="m 180.49755,73.019293 0,14.647205"
       id="path3769-4-1"
       inkscape:connector-curvature="0"
       sodipodi:nodetypes="cc" />
    <path
       style="fill:none;stroke:#000000;stroke-width:0.99999994px;stroke-linecap:butt;stroke-linejoin:miter;stroke-opacity:1"
       d="m 354.77301,73.019293 0,14.647205"
       id="path3769-4-0"
       inkscape:connector-curvature="0"
       sodipodi:nodetypes="cc" />
    <path
       style="fill:none;stroke:#000000;stroke-width:1px;stroke-linecap:butt;stroke-linejoin:miter;stroke-opacity:1"
       d="m 441.91073,73.019293 0,14.6472"
       id="path3769-4-6"
       inkscape:connector-curvature="0"
       sodipodi:nodetypes="cc" />
    <path
       style="fill:none;stroke:#000000;stroke-width:1px;stroke-linecap:butt;stroke-linejoin:miter;stroke-opacity:1"
       d="m 267.63528,73.019293 0,14.64721"
       id="path3769-4-06"
       inkscape:connector-curvature="0"
       sodipodi:nodetypes="cc" />
    <path
       style="fill:none;stroke:#000000;stroke-width:1px;stroke-linecap:butt;stroke-linejoin:miter;stroke-opacity:1"
       d="m 93.359814,73.019293 0,14.6472"
       id="path3769-4-61"
       inkscape:connector-curvature="0"
       sodipodi:nodetypes="cc" />
    <path
       style="fill:none;stroke:#000000;stroke-width:1px;stroke-linecap:butt;stroke-linejoin:miter;stroke-opacity:1"
       d="m 122.40573,73.019293 0,14.64721"
       id="path3769-4-5"
       inkscape:connector-curvature="0"
       sodipodi:nodetypes="cc" />
    <path
       style="fill:none;stroke:#000000;stroke-width:1px;stroke-linecap:butt;stroke-linejoin:miter;stroke-opacity:1"
       d="m 500.00254,73.019293 0,14.647205"
       id="path3769-4-7"
       inkscape:connector-curvature="0"
       sodipodi:nodetypes="cc" />
    <path
       style="fill:none;stroke:#000000;stroke-width:1px;stroke-linecap:butt;stroke-linejoin:miter;stroke-opacity:1"
       d="m 529.04847,73.019293 0,14.64721"
       id="path3769-4-3"
       inkscape:connector-curvature="0"
       sodipodi:nodetypes="cc" />
    <path
       style="fill:none;stroke:#000000;stroke-width:1px;stroke-linecap:butt;stroke-linejoin:miter;stroke-opacity:1"
       d="m 412.86482,73.019293 0,14.647205"
       id="path3769-4-02"
       inkscape:connector-curvature="0"
       sodipodi:nodetypes="cc" />
    <path
       style="fill:none;stroke:#000000;stroke-width:1px;stroke-linecap:butt;stroke-linejoin:miter;stroke-opacity:1"
       d="m 325.72707,73.019293 0,14.6472"
       id="path3769-4-28"
       inkscape:connector-curvature="0"
       sodipodi:nodetypes="cc" />
    <path
       style="fill:none;stroke:#000000;stroke-width:1px;stroke-linecap:butt;stroke-linejoin:miter;stroke-opacity:1"
       d="m 34.345187,73.019293 0,14.647208"
       id="path3769-6"
       inkscape:connector-curvature="0"
       sodipodi:nodetypes="cc" />
    <text
       xml:space="preserve"
       style="font-size:40px;font-style:normal;font-weight:normal;line-height:125%;letter-spacing:0px;word-spacing:0px;fill:#000000;fill-opacity:1;stroke:none;font-family:Sans"
       x="549.52301"
       y="100.2934"
       id="text4583"
       sodipodi:linespacing="125%"><tspan
         sodipodi:role="line"
         id="tspan4585"
         x="549.52301"
         y="100.2934"
         style="font-size:22px">t<tspan
   style="font-size:22px;baseline-shift:sub"
   id="tspan4587">cycles</tspan></tspan></text>
    <text
       xml:space="preserve"
       style="font-size:40px;font-style:normal;font-weight:normal;line-height:125%;letter-spacing:0px;word-spacing:0px;fill:#000000;fill-opacity:1;stroke:none;font-family:Sans"
       x="41.785717"
       y="109.86218"
       id="text4591"
       sodipodi:linespacing="125%"><tspan
         sodipodi:role="line"
         id="tspan4593"
         x="41.785717"
         y="109.86218"
         style="font-size:22px">0</tspan></text>
    <text
       xml:space="preserve"
       style="font-size:40px;font-style:normal;font-weight:normal;line-height:125%;letter-spacing:0px;word-spacing:0px;fill:#000000;fill-opacity:1;stroke:none;font-family:Sans"
       x="187.814"
       y="107.29156"
       id="text4591-3"
       sodipodi:linespacing="125%"><tspan
         sodipodi:role="line"
         id="tspan4593-4"
         x="187.814"
         y="107.29156"
         style="font-size:22px">5</tspan></text>
    <text
       xml:space="preserve"
       style="font-size:40px;font-style:normal;font-weight:normal;line-height:125%;letter-spacing:0px;word-spacing:0px;fill:#000000;fill-opacity:1;stroke:none;font-family:Sans"
       x="326.39899"
       y="107.94749"
       id="text4591-3-3"
       sodipodi:linespacing="125%"><tspan
         sodipodi:role="line"
         id="tspan4593-4-8"
         x="326.39899"
         y="107.94749"
         style="font-size:22px">10</tspan></text>
    <text
       xml:space="preserve"
       style="font-size:40px;font-style:normal;font-weight:normal;line-height:125%;letter-spacing:0px;word-spacing:0px;fill:#000000;fill-opacity:1;stroke:none;font-family:Sans"
       x="471.84235"
       y="107.37822"
       id="text4591-3-3-7"
       sodipodi:linespacing="125%"><tspan
         sodipodi:role="line"
         id="tspan4593-4-8-3"
         x="471.84235"
         y="107.37822"
         style="font-size:22px">15</tspan></text>
    <flowRoot
       xml:space="preserve"
       id="flowRoot4658"
       style="fill:black;stroke:none;stroke-opacity:1;stroke-width:1px;stroke-linejoin:miter;stroke-linecap:butt;fill-opacity:1;font-family:Sans;font-style:normal;font-weight:normal;font-size:40px;line-height:125%;letter-spacing:0px;word-spacing:0px"><flowRegion
         id="flowRegion4660"><rect
           id="rect4662"
           width="63.134533"
           height="62.124382"
           x="14.647212"
           y="56.351772" /></flowRegion><flowPara
         id="flowPara4664"></flowPara></flowRoot>    <path
       style="fill:none;stroke:#000000;stroke-width:1px;stroke-linecap:butt;stroke-linejoin:miter;stroke-opacity:1"
       d="M 33.84011,87.666501 528.30978,86.151272"
       id="path4666"
       inkscape:connector-curvature="0" />
    <path
       style="opacity:0.82812500000000000;fill:#b3b3b3;fill-opacity:1;fill-rule:nonzero;stroke:none;stroke-width:2;stroke-linecap:butt;stroke-linejoin:miter;stroke-miterlimit:4;stroke-opacity:1;stroke-dasharray:2, 6;stroke-dashoffset:0"
       d="m 65.114453,80.291226 0,-6.313453 13.637059,0 13.63706,0 0,6.313453 0,6.313453 -13.63706,0 -13.637059,0 0,-6.313453 z"
       id="path4668"
       inkscape:connector-curvature="0" />
    <path
       style="opacity:0.82812500000000000;fill:#b3b3b3;fill-opacity:1;fill-rule:nonzero;stroke:none;stroke-width:2;stroke-linecap:butt;stroke-linejoin:miter;stroke-miterlimit:4;stroke-opacity:1;stroke-dasharray:2, 6;stroke-dashoffset:0"
       d="m 93.903801,80.291226 0,-6.313453 13.889599,0 13.8896,0 0,6.313453 0,6.313453 -13.8896,0 -13.889599,0 0,-6.313453 z"
       id="path4670"
       inkscape:connector-curvature="0" />
    <path
       style="opacity:0.82812500000000000;fill:#00ff00;fill-opacity:1;fill-rule:nonzero;stroke:none;stroke-width:2;stroke-linecap:butt;stroke-linejoin:miter;stroke-miterlimit:4;stroke-opacity:1;stroke-dasharray:2, 6;stroke-dashoffset:0"
       d="m 123.19822,80.291226 0,-6.313453 13.63706,0 13.63706,0 0,6.313453 0,6.313453 -13.63706,0 -13.63706,0 0,-6.313453 z"
       id="path4672"
       inkscape:connector-curvature="0" />
    <path
       style="opacity:0.82812500000000000;fill:#b3b3b3;fill-opacity:1;fill-rule:nonzero;stroke:none;stroke-width:2;stroke-linecap:butt;stroke-linejoin:miter;stroke-miterlimit:4;stroke-opacity:1;stroke-dasharray:2, 6;stroke-dashoffset:0"
       d="m 181.282,80.291226 0,-6.313453 13.63706,0 13.63705,0 0,6.313453 0,6.313453 -13.63705,0 -13.63706,0 0,-6.313453 z"
       id="path4674"
       inkscape:connector-curvature="0" />
    <path
       style="opacity:0.82812500000000000;fill:#00ff00;fill-opacity:1;fill-rule:nonzero;stroke:none;stroke-width:2;stroke-linecap:butt;stroke-linejoin:miter;stroke-miterlimit:4;stroke-opacity:1;stroke-dasharray:2, 6;stroke-dashoffset:0"
       d="m 210.07134,80.370301 0,-6.392528 13.8896,0 13.8896,0 0,6.060915 0,6.060915 -5.93465,0.0017 c -3.26405,9.09e-4 -9.51437,0.150151 -13.8896,0.331613 l -7.95495,0.329946 0,-6.392528 z"
       id="path4676"
       inkscape:connector-curvature="0" />
    <path
       style="opacity:0.82812500000000000;fill:#b3b3b3;fill-opacity:1;fill-rule:nonzero;stroke:none;stroke-width:2;stroke-linecap:butt;stroke-linejoin:miter;stroke-miterlimit:4;stroke-opacity:1;stroke-dasharray:2, 6;stroke-dashoffset:0"
       d="m 239.36577,80.038688 0,-6.060915 13.63706,0 13.63706,0 0,6.060915 0,6.060915 -13.63706,0 -13.63706,0 0,-6.060915 z"
       id="path4678"
       inkscape:connector-curvature="0" />
    <path
       style="opacity:0.82812500000000000;fill:#00ff00;fill-opacity:1;fill-rule:nonzero;stroke:none;stroke-width:2;stroke-linecap:butt;stroke-linejoin:miter;stroke-miterlimit:4;stroke-opacity:1;stroke-dasharray:2, 6;stroke-dashoffset:0"
       d="m 297.44954,80.038688 0,-6.060915 13.8896,0 13.88959,0 0,6.060915 0,6.060915 -13.88959,0 -13.8896,0 0,-6.060915 z"
       id="path4680"
       inkscape:connector-curvature="0" />
    <path
       style="opacity:0.82812500000000000;fill:#b3b3b3;fill-opacity:1;fill-rule:nonzero;stroke:none;stroke-width:2;stroke-linecap:butt;stroke-linejoin:miter;stroke-miterlimit:4;stroke-opacity:1;stroke-dasharray:2, 6;stroke-dashoffset:0"
       d="m 326.23889,80.038688 0,-6.060915 13.88959,0 13.8896,0 0,6.060915 0,6.060915 -13.8896,0 -13.88959,0 0,-6.060915 z"
       id="path4682"
       inkscape:connector-curvature="0" />
    <path
       style="opacity:0.82812500000000000;fill:#b3b3b3;fill-opacity:1;fill-rule:nonzero;stroke:none;stroke-width:2;stroke-linecap:butt;stroke-linejoin:miter;stroke-miterlimit:4;stroke-opacity:1;stroke-dasharray:2, 6;stroke-dashoffset:0"
       d="m 355.53331,80.038688 0,-6.060915 13.8896,0 13.88959,0 0,6.060915 0,6.060915 -13.88959,0 -13.8896,0 0,-6.060915 z"
       id="path4684"
       inkscape:connector-curvature="0" />
    <path
       style="opacity:0.82812500000000000;fill:#b3b3b3;fill-opacity:1;fill-rule:nonzero;stroke:none;stroke-width:2;stroke-linecap:butt;stroke-linejoin:miter;stroke-miterlimit:4;stroke-opacity:1;stroke-dasharray:2, 6;stroke-dashoffset:0"
       d="m 413.61708,79.78615 0,-5.808377 13.8896,0 13.8896,0 0,5.808377 0,5.808377 -13.8896,0 -13.8896,0 0,-5.808377 z"
       id="path4686"
       inkscape:connector-curvature="0" />
    <path
       style="opacity:0.82812500000000000;fill:#b3b3b3;fill-opacity:1;fill-rule:nonzero;stroke:none;stroke-width:2;stroke-linecap:butt;stroke-linejoin:miter;stroke-miterlimit:4;stroke-opacity:1;stroke-dasharray:2, 6;stroke-dashoffset:0"
       d="m 442.40643,79.78615 0,-5.808377 13.8896,0 13.88959,0 0,5.808377 0,5.808377 -13.88959,0 -13.8896,0 0,-5.808377 z"
       id="path4688"
       inkscape:connector-curvature="0" />
    <path
       style="opacity:0.82812500000000000;fill:#00ff00;fill-opacity:0.82745097999999995;fill-rule:nonzero;stroke:none;stroke-width:2;stroke-linecap:butt;stroke-linejoin:miter;stroke-miterlimit:4;stroke-opacity:1;stroke-dasharray:2, 6;stroke-dashoffset:0"
       d="m 35.314953,80.543764 0,-6.565991 14.142136,0 14.142135,0 0,6.235835 0,6.235835 -6.140213,0.330156 c -3.377117,0.181586 -9.741078,0.330157 -14.142136,0.330157 l -8.001922,0 0,-6.565992 z"
       id="path4716"
       inkscape:connector-curvature="0" />
    <path
       style="opacity:0.82812500000000000;fill:#b3b3b3;fill-opacity:0.82745097999999984;fill-rule:nonzero;stroke:none;stroke-width:2;stroke-linecap:butt;stroke-linejoin:miter;stroke-miterlimit:4;stroke-opacity:1;stroke-dasharray:2, 6;stroke-dashoffset:0"
       d="m 151.98757,80.291226 0,-6.313453 13.8896,0 13.8896,0 0,6.313453 0,6.313453 -13.8896,0 -13.8896,0 0,-6.313453 z"
       id="path4718"
       inkscape:connector-curvature="0" />
    <path
       style="opacity:0.82812500000000000;fill:#b3b3b3;fill-opacity:0.82745097999999984;fill-rule:nonzero;stroke:none;stroke-width:2;stroke-linecap:butt;stroke-linejoin:miter;stroke-miterlimit:4;stroke-opacity:1;stroke-dasharray:2, 6;stroke-dashoffset:0"
       d="m 268.15511,80.038688 0,-6.060915 13.8896,0 13.8896,0 0,6.060915 0,6.060915 -13.8896,0 -13.8896,0 0,-6.060915 z"
       id="path4720"
       inkscape:connector-curvature="0" />
    <path
       style="opacity:0.82812500000000000;fill:#00ff00;fill-opacity:0.82745097999999984;fill-rule:nonzero;stroke:none;stroke-width:2;stroke-linecap:butt;stroke-linejoin:miter;stroke-miterlimit:4;stroke-opacity:1;stroke-dasharray:2, 6;stroke-dashoffset:0"
       d="m 384.32266,80.092725 0,-6.114952 13.8896,0 13.88959,0 0,5.808377 0,5.808377 -13.09067,0 c -7.19987,0 -13.45019,0.137959 -13.8896,0.306576 -0.7014,0.269153 -0.79892,-0.439848 -0.79892,-5.808378 z"
       id="path4724"
       inkscape:connector-curvature="0" />
    <path
       style="opacity:0.82812500000000000;fill:#b3b3b3;fill-opacity:0.82745097999999984;fill-rule:nonzero;stroke:none;stroke-width:2;stroke-linecap:butt;stroke-linejoin:miter;stroke-miterlimit:4;stroke-opacity:1;stroke-dasharray:none;stroke-dashoffset:0"
       d="m 500.99528,79.78615 0,-5.808377 13.63706,0 13.63706,0 0,5.808377 0,5.808377 -13.63706,0 -13.63706,0 0,-5.808377 z"
       id="path4726"
       inkscape:connector-curvature="0" />
    <path
       style="opacity:0.82812500000000000;fill:#00ff00;fill-opacity:0.82745097999999984;fill-rule:nonzero;stroke:none;stroke-width:2;stroke-linecap:butt;stroke-linejoin:miter;stroke-miterlimit:4;stroke-opacity:1;stroke-dasharray:2, 6;stroke-dashoffset:0"
       d="m 471.70085,79.78615 0,-5.808377 13.8896,0 13.8896,0 0,5.808377 0,5.808377 -13.8896,0 -13.8896,0 0,-5.808377 z"
       id="path4728"
       inkscape:connector-curvature="0" />
    <path
       style="opacity:0.828125;fill:#00ff00;fill-opacity:0.82745098;fill-rule:nonzero;stroke:none"
       d="m 34.429293,136.6479 0,-6.566 14.142136,0 14.142135,0 0,6.23584 0,6.23583 -6.140213,0.33016 c -3.377117,0.18159 -9.741078,0.33016 -14.142136,0.33016 l -8.001922,0 0,-6.56599 z"
       id="path4716-6"
       inkscape:connector-curvature="0" />
    <text
       xml:space="preserve"
       style="font-size:40px;font-style:normal;font-weight:normal;line-height:125%;letter-spacing:0px;word-spacing:0px;fill:#000000;fill-opacity:1;stroke:none;font-family:Sans"
       x="68.571434"
       y="143.79074"
       id="text4951"
       sodipodi:linespacing="125%"><tspan
         sodipodi:role="line"
         id="tspan4953"
         x="68.571434"
         y="143.79074"
         style="font-size:22px">Sending time slice</tspan></text>
    <path
       style="opacity:0.82812500000000000;fill:#b3b3b3;fill-opacity:0.82745097999999995;fill-rule:nonzero;stroke:none"
       d="m 33.559859,171.99243 0,-6.566 14.142136,0 14.142135,0 0,6.23584 0,6.23583 -6.140213,0.33016 c -3.377117,0.18159 -9.741078,0.33016 -14.142136,0.33016 l -8.001922,0 0,-6.56599 z"
       id="path4716-6-7"
       inkscape:connector-curvature="0" />
    <text
       xml:space="preserve"
       style="font-size:40px;font-style:normal;font-weight:normal;line-height:125%;letter-spacing:0px;word-spacing:0px;fill:#000000;fill-opacity:1;stroke:none;font-family:Sans"
       x="67.702003"
       y="179.13527"
       id="text4951-4"
       sodipodi:linespacing="125%"><tspan
         sodipodi:role="line"
         id="tspan4953-2"
         x="67.702003"
         y="179.13527"
         style="font-size:22px">Idle time slice</tspan></text>
  </g>
</svg>
